<svg width="109" height="39" viewBox="0 0 109 39" fill="none" xmlns="http://www.w3.org/2000/svg">
<g clip-path="url(#clip0_326_217)">
<path d="M34.0728 20.6201C33.5031 19.5273 32.769 18.6203 31.8706 17.8882L26.6776 33.3287C26.2065 34.7383 26.6995 36.1698 27.7184 37.0221C28.6934 36.585 29.5699 36.0714 30.3697 35.4814C31.8926 34.3449 33.0648 32.9462 33.8865 31.2852C34.7082 29.6243 35.1245 27.7447 35.1245 25.6467C35.1245 23.5486 34.774 21.9423 34.0728 20.6201ZM32.4513 6.15214C32.3965 6.08658 32.3417 6.02101 32.287 5.95545C31.2023 4.64416 29.8657 3.55141 28.2881 2.67722C26.7104 1.80303 24.9356 1.13645 22.9745 0.688428C21.0134 0.229476 18.9098 0 16.6639 0C14.0345 0 11.6899 0.295041 9.61926 0.896049C7.5486 1.48613 5.79566 2.32754 4.36044 3.40936C2.92522 4.49117 1.84059 5.81339 1.09559 7.37602C0.361544 8.92771 0 10.687 0 12.643C0 14.599 0.350588 16.1617 1.07368 17.4402C1.79676 18.7187 2.72801 19.7459 3.88934 20.5326C5.0397 21.3194 6.35441 21.9314 7.83345 22.3466C9.30154 22.7618 10.8134 23.0897 12.3582 23.3191C13.8921 23.5486 15.404 23.7235 16.872 23.8437C18.3511 23.9639 19.6658 24.1387 20.8162 24.3682C21.9775 24.5976 22.9087 24.9036 23.6099 25.2861C24.3111 25.6685 24.6617 26.2477 24.6617 27.0126C24.6617 27.5371 24.4754 27.9961 24.1029 28.3785C23.7414 28.761 23.2484 29.067 22.6348 29.2964C22.0213 29.5259 21.3092 29.6898 20.5094 29.7991C19.6987 29.8974 18.8551 29.9521 17.9786 29.9521C16.7515 29.9521 15.645 29.8537 14.6699 29.668C13.6839 29.4713 12.8293 29.209 12.0953 28.8812C11.3503 28.5424 10.7477 28.1381 10.2766 27.6464C10.2766 27.6355 10.2657 27.6355 10.2657 27.6245C9.4111 26.7394 8.20595 26.2914 7.0008 26.5537L3.10051 27.3951C0.701176 27.9196 -0.394412 30.7935 1.13941 32.7167C1.19419 32.7714 1.23801 32.826 1.28184 32.8916C2.38838 34.2138 3.73595 35.3284 5.33551 36.2244C6.92411 37.1096 8.74279 37.7871 10.7806 38.2351C12.8074 38.694 14.9986 38.9235 17.3541 38.9235C20.115 38.9235 22.602 38.6285 24.7931 38.0602C24.8918 38.0275 25.0013 38.0056 25.0999 37.9728C24.322 37.0331 24.0043 35.7327 24.4316 34.4433L30.3587 16.8501C29.4165 16.3147 28.3976 15.8994 27.2911 15.5825C25.812 15.1563 24.3001 14.8504 22.7444 14.6646C21.1777 14.4679 19.6658 14.3368 18.1868 14.2712C16.7187 14.1947 15.393 14.0855 14.2207 13.9325C13.0484 13.7686 12.1062 13.5391 11.4051 13.244C10.7039 12.949 10.3533 12.4682 10.3533 11.8016C10.3533 11.4192 10.4848 11.0476 10.7477 10.698C11.0107 10.3483 11.3832 10.0423 11.8543 9.78005C12.3254 9.51779 12.906 9.31017 13.5853 9.15719C14.2755 8.99328 15.0205 8.91678 15.8203 8.91678C16.7406 8.91678 17.639 9.01513 18.5373 9.21182C19.4248 9.39759 20.2684 9.65985 21.0572 9.9986C21.846 10.3264 22.5253 10.7307 23.1059 11.2006C23.2484 11.3099 23.3689 11.4301 23.4894 11.5394C24.2563 12.3152 25.4067 12.5665 26.4694 12.3371L30.4792 11.4629C31.531 11.2334 32.3308 10.5559 32.7581 9.70356C32.9334 9.37574 33.0539 9.02606 33.1087 8.66545C33.2401 7.81311 33.0539 6.90614 32.4513 6.15214Z" fill="#023C5A"/>
<path d="M32.7581 9.70356C32.9334 9.37573 33.0539 9.02606 33.1087 8.66545L32.7581 9.70356ZM84.678 34.4433L75.738 7.87868C75.3326 8.5671 74.9492 9.31017 74.6205 10.1079C74.5657 10.2281 74.5109 10.3483 74.4671 10.4685C73.4701 12.949 72.9661 15.9759 72.9661 19.5382C72.9661 23.1006 73.4811 26.1275 74.5 28.6189C75.5079 31.0995 76.9102 33.1101 78.707 34.6509C79.6383 35.4486 80.6462 36.1261 81.7528 36.6834C82.5306 37.0877 83.3413 37.4374 84.2069 37.7215C84.8423 36.8145 85.0724 35.6125 84.678 34.4433ZM77.5019 36.2354C75.5298 34.5307 73.985 32.3124 72.8566 29.5696C71.7281 26.8268 71.1694 23.483 71.1694 19.5382C71.1694 15.5934 71.7281 12.2606 72.8237 9.51779C73.1086 8.81843 73.4153 8.15186 73.755 7.51807L72.3745 3.42028C71.9144 2.0325 70.6106 1.10367 69.1425 1.10367H61.1009C60.345 1.10367 59.6328 1.355 59.0631 1.78117C58.4825 2.20734 58.0442 2.81928 57.8251 3.54049C57.3431 5.15775 55.9517 5.9773 54.5493 5.9773C53.147 5.9773 51.7665 5.15775 51.2845 3.54049C50.8572 2.09806 49.5206 1.10367 48.0196 1.10367H39.978C38.5099 1.10367 37.2062 2.0325 36.7351 3.42028L31.8706 17.8882L26.6776 33.3287C26.2065 34.7383 26.6995 36.1698 27.7184 37.0221C28.1457 37.3937 28.6715 37.645 29.2522 37.7543H29.2631L37.6115 37.3281H37.6225C37.7759 37.0549 37.8854 36.749 37.9512 36.443L43.1442 13.8669H43.2538L43.6701 15.6699L43.9878 14.2822H44.0974L48.907 35.1863C49.2576 36.738 50.6381 37.8308 52.2267 37.8308H56.8939C58.4825 37.8308 59.8629 36.738 60.2135 35.1863L65.0231 14.2822H65.1327L65.4504 15.6699L65.8667 13.8669H65.9763L71.1694 36.443C71.2351 36.749 71.3447 37.0549 71.4981 37.3281C71.4981 37.3281 71.498 37.3281 71.509 37.3281C72.0239 37.645 72.6265 37.8198 73.2619 37.8198H79.211C79.3534 37.8198 79.4958 37.8089 79.6383 37.7871C78.8823 37.3281 78.1702 36.8036 77.5019 36.2354Z" fill="#023C5A"/>
<path d="M82.443 33.3287L74.6205 10.1079C74.5657 10.2281 74.5109 10.3483 74.4671 10.4685C73.4701 12.949 72.9661 15.9759 72.9661 19.5382C72.9661 23.1006 73.4811 26.1275 74.5 28.6189C75.5079 31.0995 76.9103 33.1101 78.707 34.6509C79.6383 35.4486 80.6462 36.1261 81.7528 36.6834C82.5306 35.8201 82.8593 34.5635 82.443 33.3287ZM77.5019 36.2354C75.5298 34.5307 73.985 32.3124 72.8566 29.5696C71.7281 26.8268 71.1694 23.483 71.1694 19.5382C71.1694 15.5934 71.7281 12.2606 72.8237 9.51779C73.1086 8.81843 73.4153 8.15186 73.755 7.51807L72.3745 3.42028C71.9144 2.0325 70.6106 1.10367 69.1425 1.10367H61.1009C60.345 1.10367 59.6328 1.355 59.0631 1.78117C58.4825 2.20734 58.0442 2.81928 57.8251 3.54049C57.3431 5.15775 55.9517 5.9773 54.5493 5.9773C53.147 5.9773 51.7665 5.15775 51.2845 3.54049C50.8572 2.09806 49.5206 1.10367 48.0196 1.10367H39.978C38.5099 1.10367 37.2062 2.0325 36.7351 3.42028L31.8707 17.8882L26.6776 33.3287C26.2065 34.7383 26.6995 36.1698 27.7184 37.0221C28.1457 37.3937 28.6715 37.645 29.2522 37.7543H29.2632C29.4713 37.798 29.6904 37.8198 29.9095 37.8198H35.8586C36.494 37.8198 37.0966 37.645 37.6115 37.3281C37.6225 37.3281 37.6225 37.3281 37.6225 37.3281C38.3894 36.8692 38.9701 36.1152 39.1782 35.1863L43.6701 15.6699L43.9879 14.2822H44.0974L48.907 35.1863C49.2576 36.738 50.6381 37.8308 52.2267 37.8308H56.8939C58.4825 37.8308 59.8629 36.738 60.2135 35.1863L65.0231 14.2822H65.1327L65.4504 15.6699L69.9423 35.1863C70.1505 36.1152 70.7311 36.8692 71.4981 37.3281C71.4981 37.3281 71.498 37.3281 71.509 37.3281C72.0239 37.645 72.6265 37.8198 73.262 37.8198H79.211C79.3534 37.8198 79.4958 37.8089 79.6383 37.7871C78.8823 37.3281 78.1702 36.8036 77.5019 36.2354Z" fill="#023C5A"/>
<path d="M107.795 26.9252L103.434 25.9963C101.923 25.6685 100.443 26.4116 99.6327 27.7229C99.6218 27.7229 99.6218 27.7338 99.6218 27.7447C99.1726 28.455 98.6467 29.0669 98.0441 29.5696C97.4415 30.0723 96.7842 30.4657 96.0392 30.7498C95.3052 31.0448 94.5492 31.1869 93.7823 31.1869C92.5005 31.1869 91.2953 31.0011 90.1778 30.6405C89.0493 30.269 88.0743 29.6461 87.2416 28.7501C86.409 27.8649 85.7516 26.6738 85.2696 25.1659C84.7766 23.6579 84.5355 21.7674 84.5355 19.4836C84.5355 17.1998 84.7656 15.3202 85.2367 13.8341C85.6969 12.348 86.3213 11.1569 87.0992 10.2718C87.8661 9.37572 88.7535 8.76378 89.7396 8.41411C90.7256 8.06443 91.7445 7.88959 92.7853 7.88959C93.8261 7.88959 94.7245 8.03165 95.5791 8.32669C96.4336 8.6108 97.1896 9.01512 97.8469 9.51778C98.5043 10.0204 99.063 10.6214 99.5341 11.3427C99.5451 11.3645 99.556 11.3864 99.5779 11.4082C100.389 12.6977 101.868 13.4079 103.358 13.091L107.729 12.1513C108.912 11.2115 109.318 9.48499 108.496 8.06443C108.244 7.63826 107.97 7.22302 107.674 6.8187C106.59 5.33257 105.264 4.09777 103.708 3.09245C102.153 2.09805 100.367 1.34406 98.3728 0.841397C96.3679 0.338735 94.2205 0.0764771 91.8979 0.0764771C89.3123 0.0764771 86.8582 0.426155 84.5684 1.10366C82.2677 1.78116 80.2627 2.89575 78.5427 4.43652C77.469 5.39814 76.5377 6.54552 75.738 7.87866C75.3326 8.56709 74.9491 9.31016 74.6205 10.1079C74.5657 10.2281 74.5109 10.3483 74.4671 10.4685C73.4701 12.949 72.9661 15.9759 72.9661 19.5382C72.9661 23.1006 73.4811 26.1275 74.4999 28.6189C75.5079 31.0995 76.9102 33.1101 78.707 34.6509C79.6383 35.4486 80.6462 36.1261 81.7527 36.6834C82.5306 37.0877 83.3413 37.4374 84.2069 37.7215C84.4808 37.8089 84.7547 37.8963 85.0395 37.9728C87.4717 38.6612 90.1121 39 92.9496 39C95.0203 39 96.9814 38.7487 98.8439 38.2351C100.706 37.7324 102.383 36.9784 103.895 35.984C105.396 34.9896 106.688 33.7439 107.762 32.2578C108.058 31.8425 108.343 31.4054 108.595 30.9465C109.394 29.5478 108.956 27.854 107.795 26.9252Z" fill="#023C5A"/>
<path d="M107.795 26.9252C107.422 26.6301 106.984 26.4116 106.48 26.3023L102.174 25.3844C100.805 25.0894 99.4574 25.7559 98.7234 26.947H98.7124C98.3071 27.6136 97.836 28.16 97.2882 28.6189C96.7513 29.0669 96.1488 29.4276 95.4805 29.6898C94.8121 29.9521 94.1329 30.0832 93.4317 30.0832C92.2704 30.0832 91.1858 29.9193 90.1669 29.5805C89.148 29.2527 88.2605 28.6845 87.5155 27.8759C86.7596 27.0782 86.157 25.9963 85.7188 24.6304C85.2805 23.2645 85.0614 21.5489 85.0614 19.4836C85.0614 17.4183 85.2805 15.7246 85.6969 14.3696C86.1132 13.0255 86.6829 11.9546 87.3841 11.146C88.0852 10.3483 88.8741 9.78004 89.7724 9.47407C90.6708 9.15717 91.5911 8.99326 92.5333 8.99326C93.4755 8.99326 94.2863 9.12439 95.0532 9.38665C95.831 9.64891 96.5103 10.0095 97.1129 10.4685C97.7045 10.9165 98.2085 11.4738 98.6357 12.1185C98.6467 12.1404 98.6577 12.1622 98.6796 12.1841C99.4136 13.3533 100.75 13.9871 102.098 13.703L106.414 12.7742C106.918 12.6649 107.368 12.4463 107.729 12.1513C108.912 11.2115 109.318 9.48499 108.496 8.06443C108.244 7.63826 107.97 7.22302 107.674 6.8187C106.59 5.33257 105.264 4.09777 103.708 3.09245C102.153 2.09805 100.367 1.34406 98.3728 0.841397C96.3679 0.338735 94.2205 0.0764771 91.8979 0.0764771C89.3123 0.0764771 86.8582 0.426155 84.5684 1.10366C82.2677 1.78116 80.2627 2.89575 78.5427 4.43652C77.469 5.39814 76.5377 6.54552 75.738 7.87866C75.3326 8.56709 74.9491 9.31016 74.6205 10.1079C74.5657 10.2281 74.5109 10.3483 74.4671 10.4685C73.4701 12.949 72.9661 15.9759 72.9661 19.5382C72.9661 23.1006 73.4811 26.1275 74.4999 28.6189C75.5079 31.0995 76.9102 33.1101 78.707 34.6509C79.6383 35.4486 80.6462 36.1261 81.7527 36.6834C82.5306 37.0877 83.3413 37.4374 84.2069 37.7215C84.4808 37.8089 84.7547 37.8963 85.0395 37.9728C87.4717 38.6612 90.1121 39 92.9496 39C95.0203 39 96.9814 38.7487 98.8439 38.2351C100.706 37.7324 102.383 36.9784 103.895 35.984C105.396 34.9896 106.688 33.7439 107.762 32.2578C108.058 31.8425 108.343 31.4054 108.595 30.9465C109.394 29.5478 108.956 27.854 107.795 26.9252Z" fill="#023C5A"/>
</g>
<defs>
<clipPath id="clip0_326_217">
<rect width="109" height="39" fill="white"/>
</clipPath>
</defs>
</svg>
